<svg width="109" height="112" viewBox="0 0 109 112" fill="none" xmlns="http://www.w3.org/2000/svg">
<path d="M15 112L14.6133 111.995C14.5549 111.994 14.4967 111.99 14.4385 111.988C14.6248 111.995 14.812 112 15 112ZM2.71191 105.604C2.7197 105.616 2.72754 105.627 2.73535 105.638C4.94295 105.509 7.02127 105.021 8.96973 104.171C11.3469 103.459 11.3469 102.828 8.96973 102.277C6.63208 102.891 4.19334 103.415 1.6543 103.855C1.02127 102.626 0.554024 101.297 0.280273 99.8984C2.35456 99.1818 4.54109 98.7129 6.83789 98.4893C8.26054 98.8226 8.56473 99.3837 7.75098 100.173C10.0853 100.63 11.9128 100.139 13.2334 98.6992C12.4076 98.0397 12.0016 97.2685 12.0156 96.3848C10.254 96.2917 8.62855 95.9416 7.1416 95.333C4.91712 95.123 2.68416 95.0526 0.441406 95.1221C0.286813 95.197 0.139716 95.273 0 95.3496V93.791C0.614565 93.868 1.37069 93.8213 2.26855 93.6494C7.04554 92.0572 12.1223 91.3559 17.498 91.5449C17.9901 91.4153 18.3961 91.2043 18.7158 90.9131C16.8366 90.1791 15.009 89.4076 13.2334 88.5986C13.9565 88.1697 14.5663 87.6781 15.0615 87.125C12.5544 85.6418 12.7567 84.3096 15.6699 83.127C13.8548 82.1489 11.8249 81.517 9.5791 81.2324C6.39567 82.2115 3.2023 83.2184 0 84.251V80.9912C0.0917549 81.147 0.237911 81.2983 0.441406 81.4434C4.02626 81.4694 7.07244 80.5569 9.5791 78.707C11.5958 79.2305 13.6258 79.2305 15.6699 78.707C19.6952 79.6031 23.3502 80.9366 26.6348 82.7061C28.6736 82.9152 30.5011 82.5637 32.1172 81.6533C31.3643 81.2927 30.5523 81.0123 29.6807 80.8115C28.6463 81.3086 27.6307 81.3086 26.6348 80.8115C25.8338 80.0472 24.9199 79.3455 23.8936 78.707C23.566 77.8768 24.0745 77.4557 25.417 77.4443C28.4029 78.2789 31.4484 78.9802 34.5537 79.5488C37.3851 78.7209 38.197 77.3176 36.9902 75.3398C35.4936 76.0658 33.8696 76.2768 32.1172 75.9717C29.4192 73.5015 25.9673 72.9404 21.7617 74.2881C20.739 75.6756 19.1143 76.0966 16.8887 75.5508C15.7258 74.5352 14.3035 73.7627 12.624 73.2354C11.7447 70.8895 13.1663 69.7672 16.8887 69.8682C21.0503 70.5971 25.2125 71.2988 29.376 71.9727C30.9184 71.7597 32.2382 71.269 33.3359 70.5C31.6705 68.856 29.4369 67.8032 26.6348 67.3428C26.0131 67.1315 25.9111 66.8511 26.3301 66.501C30.0855 64.5224 34.2491 63.9613 38.8184 64.8174C40.1521 64.2921 40.3544 63.5908 39.4268 62.7129C37.2018 62.297 35.577 61.3853 34.5537 59.9775C32.5474 60.2039 30.5173 60.3441 28.4629 60.3984C26.8634 59.4953 25.0356 58.9342 22.9805 58.7148C22.1685 58.0132 21.355 57.312 20.543 56.6104C18.048 56.0771 15.6114 55.4452 13.2334 54.7158C10.1227 54.8114 7.68606 55.7935 5.92383 57.6621C6.97157 58.2598 8.089 58.8208 9.27441 59.3457C9.68065 60.1874 9.68053 61.0294 9.27441 61.8711C7.8825 62.4263 6.562 63.0581 5.31445 63.7656C6.16299 64.3393 7.17801 64.6894 8.36035 64.8174C9.56219 64.4676 10.7809 64.3978 12.0156 64.6074C12.8273 65.1684 12.8274 65.7301 12.0156 66.291C9.96833 66.3137 8.14072 66.7347 6.5332 67.5537C7.34511 68.1147 8.15782 68.6763 8.96973 69.2373C7.63329 70.5441 6.00933 71.6668 4.09668 72.6045C4.46392 73.3724 4.86989 74.1443 5.31445 74.9189C6.10452 75.7047 7.01828 75.8449 8.05566 75.3398C9.75819 75.6281 11.484 75.8391 13.2334 75.9717C13.7432 76.3972 13.9463 76.888 13.8428 77.4443C11.1529 77.2469 8.71633 77.668 6.5332 78.707C4.06553 78.1855 1.93311 78.6065 0.136719 79.9697C0.0821555 80.0405 0.0367818 80.1106 0 80.1797V15C1.54632e-06 6.71573 6.71573 2.01331e-07 15 0H94C102.284 0 109 6.71573 109 15V97C109 102.001 106.552 106.43 102.789 109.155C103.232 108.834 103.658 108.49 104.062 108.123C101.552 106.793 98.7894 105.825 95.7734 105.224C95.3673 104.663 95.3674 104.101 95.7734 103.54C97.9993 105.352 100.538 105.632 103.389 104.382C104.801 101.895 104.903 99.3697 103.693 96.8057C103.441 96.6133 103.136 96.4727 102.779 96.3848C102.304 96.9053 101.695 97.3263 100.952 97.6475C99.8612 96.8423 98.6425 96.1406 97.2969 95.543C96.4849 95.9638 95.6723 96.3848 94.8604 96.8057C93.9083 96.1975 93.0963 95.4962 92.4238 94.7012C91.9213 94.3283 91.3115 94.1881 90.5957 94.2803C88.7829 97.4533 87.0572 100.68 85.418 103.961C85.2932 106.604 84.7786 109.284 83.876 112H20.874C19.9471 110.654 18.6195 109.447 16.8887 108.38C14.8681 108.17 12.8375 108.1 10.7969 108.17C9.28588 108.514 7.73589 108.826 6.14746 109.109C6.91196 109.669 7.7319 110.157 8.59668 110.566C6.22984 109.447 4.20213 107.729 2.71191 105.604ZM11.4385 111.573C11.7918 111.659 12.1501 111.732 12.5127 111.793C12.15 111.732 11.7918 111.659 11.4385 111.573ZM100.017 110.742C99.7413 110.863 99.4623 110.977 99.1787 111.081C99.4623 110.977 99.7414 110.863 100.017 110.742ZM8.67676 110.604C9.00106 110.756 9.33157 110.895 9.66797 111.023C9.33154 110.895 9.00109 110.755 8.67676 110.604ZM102.738 109.191C102.572 109.311 102.403 109.427 102.231 109.54C102.403 109.427 102.572 109.311 102.738 109.191ZM2.12598 104.701C2.14394 104.731 2.16152 104.761 2.17969 104.791C2.16154 104.761 2.14392 104.731 2.12598 104.701ZM107.652 101.436C106.234 102.096 106.21 102.742 107.579 103.377C107.841 102.82 108.07 102.245 108.263 101.653C108.082 101.581 107.879 101.508 107.652 101.436ZM30.8994 93.4385C29.5435 95.9137 30.6602 97.5974 34.249 98.4893C36.8538 103.066 37.9706 102.926 37.5996 98.0684C36.0433 97.5381 34.5205 96.9765 33.0312 96.3848C32.9466 95.1453 32.2357 94.1628 30.8994 93.4385ZM24.8076 93.4385C22.7798 94.4208 21.1553 95.6836 19.9346 97.2266C20.7946 97.7762 21.8104 98.1268 22.9805 98.2783C23.3746 98.9555 23.8816 99.5874 24.5029 100.173C26.4802 98.1399 27.5977 95.8948 27.8535 93.4385H24.8076ZM0.219727 99.5713C0.199287 99.453 0.180736 99.3341 0.163086 99.2148C0.180748 99.3341 0.19928 99.453 0.219727 99.5713ZM0.0712891 98.4697C0.0912285 98.6745 0.116448 98.8778 0.144531 99.0801C0.119371 98.8987 0.095764 98.7166 0.0771484 98.5332L0.0712891 98.4697ZM57.7021 93.4385C57.1972 94.6881 57.0959 95.9508 57.3975 97.2266C58.3446 98.8654 59.6644 99.2863 61.3564 98.4893C60.6614 97.1193 60.1544 95.7159 59.834 94.2803C59.337 93.7235 58.6261 93.4432 57.7021 93.4385ZM0.00488281 97.3711C0.00556488 97.3991 0.00697664 97.4271 0.0078125 97.4551C0.00713355 97.4323 0.00546004 97.4095 0.00488281 97.3867V97.3711ZM63.793 93.8594C63.3319 93.3238 62.9266 93.3237 62.5752 93.8594C63.1008 94.2646 63.5067 94.2645 63.793 93.8594ZM39.4268 86.7041C37.1042 87.1843 34.7694 87.7454 32.4219 88.3877C31.9803 89.4184 31.3713 90.4009 30.5947 91.334C30.1884 91.895 30.1884 92.4565 30.5947 93.0176C31.2318 92.3485 31.9427 91.7174 32.7266 91.124C35.224 90.0857 37.5593 88.8923 39.7314 87.5459C40.153 87.1515 40.0511 86.8712 39.4268 86.7041ZM93.0322 86.2832C92.3467 86.8546 92.3467 87.4164 93.0322 87.9668C94.1141 88.8246 95.1297 89.7368 96.0781 90.7031C96.4844 90.9838 96.8906 90.9838 97.2969 90.7031C98.3732 88.1045 96.9515 86.6309 93.0322 86.2832ZM52.2197 85.4414C50.8998 86.6981 51.1027 87.961 52.8281 89.2295C54.0768 89.719 55.2956 89.6491 56.4834 89.0195C56.6607 87.0923 55.2397 85.8994 52.2197 85.4414ZM45.5186 84.5996C45.2469 88.6423 46.6686 88.923 49.7832 85.4414C49.4926 84.8391 49.0865 84.278 48.5645 83.7578C47.5319 84.0415 46.5163 84.3222 45.5186 84.5996ZM28.4629 85.4414C28.3721 85.8841 28.4725 86.3052 28.7666 86.7041C30.0701 86.0505 29.9689 85.6296 28.4629 85.4414ZM45.5186 83.3369C43.0767 83.1324 41.9597 83.8337 42.168 85.4414C43.1328 84.8686 44.2504 84.5879 45.5186 84.5996V83.3369ZM63.1846 74.709C62.6071 74.5057 61.9973 74.4353 61.3564 74.498C62.7039 77.3554 61.486 78.057 57.7021 76.6025C57.4994 76.7427 57.2956 76.8833 57.0928 77.0234C57.7635 77.925 58.3723 78.8372 58.9199 79.7598C56.9649 81.611 57.5739 82.5932 60.7471 82.7061C63.1837 81.7241 65.621 80.7417 68.0576 79.7598C69.6065 79.7008 71.0282 79.4204 72.3213 78.918C70.9173 77.9626 69.5982 77.8924 68.3623 78.707C66.5648 77.4141 64.8389 76.0814 63.1846 74.709ZM45.5186 69.8682C46.5425 72.9162 45.2234 75.3016 41.5596 77.0234C41.1533 77.8652 41.1533 78.707 41.5596 79.5488C43.0373 78.5561 44.7632 78.0652 46.7373 78.0762C47.289 78.7912 47.4912 79.5629 47.3457 80.3906C50.3373 81.043 52.7746 80.4819 54.6562 78.707C51.781 76.6985 49.8517 74.3137 48.8691 71.5518C48.1034 70.6065 46.9866 70.0454 45.5186 69.8682ZM65.0117 69.0264C64.9063 71.0563 66.3279 71.8981 69.2754 71.5518C69.3788 70.9955 69.1765 70.5045 68.667 70.0791C67.456 69.6843 66.2373 69.3328 65.0117 69.0264ZM63.793 63.1338C63.8228 64.2277 64.4326 65.1403 65.6211 65.8701C67.6512 66.7118 69.6818 67.5538 71.7119 68.3955C74.3185 69.2752 76.8576 69.2044 79.3271 68.1846C79.7599 67.399 79.4551 66.7678 78.4131 66.291C73.3401 65.626 68.4664 64.5732 63.793 63.1338ZM9.5791 4.20898C8.09711 6.33056 7.2836 8.505 7.1416 10.7324C7.72334 13.271 8.73833 15.7268 10.1875 18.0986C9.8447 18.7039 9.64187 19.3352 9.5791 19.9922C10.3789 21.9352 10.9878 23.8996 11.4062 25.8848C11.349 26.8845 11.1453 27.8667 10.7969 28.8311C12.0024 29.8117 13.221 30.7937 14.4521 31.7773C12.9475 33.133 12.5408 34.6067 13.2334 36.1973C9.77915 41.9326 10.1858 47.5439 14.4521 53.0322C15.0613 53.3828 15.6702 53.7344 16.2793 54.085C18.9291 54.2398 21.5686 54.4498 24.1982 54.7158C24.8073 54.5757 25.4163 54.4351 26.0254 54.2949C24.5976 53.2441 22.9729 52.4021 21.1523 51.7695C22.1751 51.2299 23.2925 50.809 24.5029 50.5068C24.7057 49.525 24.9095 48.5423 25.1123 47.5605C27.101 46.8498 29.2329 46.4297 31.5078 46.2988C34.5639 47.2 37.1031 46.7791 39.123 45.0361C39.5397 44.4958 39.4377 44.004 38.8184 43.5625C35.7434 42.9261 32.6972 42.2245 29.6807 41.458C28.3869 40.9858 27.27 40.3549 26.3301 39.5645C25.174 37.9517 25.9862 36.9692 28.7666 36.6182C31.0796 37.9326 33.4156 39.2651 35.7725 40.6162C38.7968 41.2088 41.7419 41.8407 44.6055 42.5107C46.6994 44.5397 48.3237 46.7839 49.4785 49.2441C52.3068 51.2661 54.2362 53.5816 55.2656 56.1895C57.3895 56.5079 59.0143 56.0167 60.1387 54.7158C59.4778 53.3383 59.3759 51.9353 59.834 50.5068C60.993 49.6899 61.5002 48.7078 61.3564 47.5605C59.498 47.5033 57.6703 47.6439 55.874 47.9814C53.5119 47.9839 52.091 47.2129 51.6104 45.667C51.9393 43.6673 52.9549 41.8435 54.6562 40.1953C55.0065 37.3745 53.5841 35.1293 50.3916 33.4609C49.598 33.3726 48.7858 33.4434 47.9551 33.6719C46.9763 33.6142 46.1636 33.3334 45.5186 32.8301C44.4794 30.0771 44.0736 27.2707 44.3008 24.4121C45.9837 24.5148 47.3029 25.076 48.2598 26.0957C48.7709 27.8512 50.1927 29.114 52.5244 29.8838C53.298 31.8349 54.11 33.7991 54.9609 35.7764C55.8941 34.9085 57.112 34.347 58.6152 34.0928C57.7259 32.509 57.3202 30.8252 57.3975 29.042C57.7051 26.7928 59.126 24.9688 61.6611 23.5703C62.0674 23.8509 62.4736 24.1315 62.8799 24.4121C63.1583 25.7992 63.666 27.1319 64.4023 28.4102C64.1995 28.5504 63.9958 28.6908 63.793 28.8311C64.1646 29.6505 64.6725 30.423 65.3164 31.1465C66.0693 28.7177 67.5919 26.5425 69.8848 24.6221C70.6669 24.3343 71.3776 24.405 72.0166 24.833C71.9496 26.3603 71.8484 27.9038 71.7119 29.4629C73.9059 29.4768 75.7336 28.9152 77.1943 27.7793C79.8198 28.2561 80.7335 29.3787 79.9355 31.1465C77.3669 31.6662 74.8284 31.5261 72.3213 30.7256C64.5743 32.7328 61.6298 36.5211 63.4883 42.0898C65.4053 40.3705 67.8426 39.9496 70.7988 40.8271C71.7898 40.7745 72.7037 40.5636 73.54 40.1953C75.8553 38.327 77.7842 36.2927 79.3271 34.0928C80.8828 34.6298 82.5075 35.0508 84.2002 35.3555C86.4746 35.4422 88.8094 35.3016 91.2051 34.9346C90.348 33.2763 88.8253 31.8729 86.6367 30.7256C84.9293 27.8892 83.1017 25.0831 81.1543 22.3076C77.4446 20.7295 73.8908 18.9753 70.4941 17.0459C68.6247 16.2689 66.5941 15.848 64.4023 15.7832C63.387 15.0818 62.3718 14.3802 61.3564 13.6787C59.9976 13.6101 59.1849 14.1016 58.9199 15.1523C59.8604 17.3886 59.4552 19.4932 57.7021 21.4658C57.4993 21.1151 57.2956 20.7638 57.0928 20.4131C57.7877 19.5027 58.193 18.5205 58.3105 17.4668C57.6015 15.3613 56.9926 13.2565 56.4834 11.1533C53.4401 10.6473 50.3939 10.507 47.3457 10.7324C44.4132 14.0199 40.2512 16.1951 34.8584 17.2568C33.7462 17.042 33.6443 16.6907 34.5537 16.2041C33.233 13.2532 30.3898 11.64 26.0254 11.3643C25.4528 12.717 24.539 13.9799 23.2842 15.1523C23.0101 14.3026 22.5031 13.5304 21.7617 12.8369C20.0628 12.7353 18.4383 12.4547 16.8887 11.9951C17.5834 11.6832 17.5835 11.3328 16.8887 10.9434C17.6117 10.5143 18.2206 10.0227 18.7158 9.46973C17.9929 9.0407 17.3838 8.54996 16.8887 7.99707C18.5131 7.5762 18.5131 7.15524 16.8887 6.73438C15.9445 7.76935 14.7258 8.04997 13.2334 7.57617C12.5834 6.70974 11.7715 5.93753 10.7969 5.26074C11.3521 4.57679 10.9462 4.22639 9.5791 4.20898ZM81.459 37.46C80.3406 38.5829 78.9188 39.4941 77.1943 40.1953C73.9458 41.3178 70.6968 42.44 67.4482 43.5625C69.1587 43.9804 70.8844 44.332 72.626 44.6152C77.7787 44.0706 81.5356 42.2467 83.8955 39.1436C83.8681 38.0118 83.0554 37.4503 81.459 37.46ZM89.2314 1C88.9902 2.24546 88.5312 3.45551 87.8545 4.62988C85.418 6.31339 82.9814 7.99716 80.5449 9.68066C79.5424 10.335 79.3393 11.0367 79.9355 11.7852C78.7065 12.5638 77.5903 13.4058 76.5859 14.3105C77.6603 15.4531 78.2693 16.716 78.4131 18.0986C79.8652 18.1225 81.2868 17.9822 82.6768 17.6777C83.5525 17.7698 84.3648 17.98 85.1133 18.3086C86.7379 19.8519 86.7379 21.3952 85.1133 22.9385C85.4836 23.3046 85.9916 23.5156 86.6367 23.5703C89.8809 22.8682 91.5054 21.3247 91.5098 18.9404C93.166 17.4167 93.4708 15.7329 92.4238 13.8896C94.0314 10.7476 94.5384 7.52061 93.9463 4.20898C93.7215 2.83872 93.0041 1.7711 91.7979 1H89.2314ZM74.7578 6.31348C72.7264 8.07058 70.7969 9.8946 68.9707 11.7852C68.4105 12.967 68.9184 13.8786 70.4941 14.5205C72.8265 14.8394 74.8572 14.4185 76.5859 13.2578C75.2525 12.9729 75.0494 12.4823 75.9766 11.7852C73.7117 10.0513 73.7117 8.3677 75.9766 6.73438C75.6982 6.39871 75.2914 6.25838 74.7578 6.31348ZM100.365 110.585C100.284 110.623 100.202 110.661 100.12 110.697C100.202 110.661 100.284 110.623 100.365 110.585ZM101.006 110.265C100.916 110.312 100.825 110.359 100.733 110.405C100.825 110.359 100.916 110.312 101.006 110.265ZM2.39258 105.129C2.32037 105.017 2.24898 104.905 2.17969 104.791C2.24906 104.905 2.3203 105.017 2.39258 105.129ZM0.256836 99.7715C0.244385 99.7048 0.231293 99.6382 0.219727 99.5713C0.231296 99.6382 0.244384 99.7048 0.256836 99.7715Z" fill="#EAEAEA"/>
</svg>
